# xmcd
#
# Track frame offsets:
#	150
#	19837
#	40375
#	60537
#	79422
#	100687
#	123350
#	144612
#	161792
#	180600
#
# Disc length: 2678 seconds
#
# Revision: 0
# Processed by: cddbd v1.4PL0 Copyright (c) Steve Scherf et al.
# Submitted via: EasyCDDAExtractor 4.6.9.1
#
DISCID=850a740a
DTITLE=Black Uhuru - Reggae Greats
DYEAR=1985
DGENRE=Reggae
TTITLE0=Happiness
TTITLE1=World In Africa
TTITLE2=Sponji Reggae
TTITLE3=Youth Of Eglintgton
TTITLE4=Darkness
TTITLE5=What Is Life
TTITLE6=Bull In The Pen
TTITLE7=Elements
TTITLE8=Push Push
TTITLE9=Right Stuff
EXTD=
EXTT0=
EXTT1=
EXTT2=
EXTT3=
EXTT4=
EXTT5=
EXTT6=
EXTT7=
EXTT8=
EXTT9=
PLAYORDER=
